<svg width="400" height="400" viewBox="0 0 400 400" fill="none" xmlns="http://www.w3.org/2000/svg">
<path d="M214.286 200C214.286 207.89 207.89 214.286 200 214.286C192.11 214.286 185.714 207.89 185.714 200C185.714 192.11 192.11 185.714 200 185.714C207.89 185.714 214.286 192.11 214.286 200Z" fill="#3076FF"/>
<path fill-rule="evenodd" clip-rule="evenodd" d="M200 271.429C239.449 271.429 271.429 239.449 271.429 200C271.429 160.551 239.449 128.571 200 128.571C160.551 128.571 128.571 160.551 128.571 200C128.571 239.449 160.551 271.429 200 271.429ZM200 242.857C223.669 242.857 242.857 223.669 242.857 200C242.857 176.331 223.669 157.143 200 157.143C176.331 157.143 157.143 176.331 157.143 200C157.143 223.669 176.331 242.857 200 242.857Z" fill="#3076FF"/>
<path d="M164.286 312.632C164.286 305.655 168.748 300 174.253 300H225.748C231.252 300 235.714 305.655 235.714 312.632V387.368C235.714 394.345 231.252 400 225.748 400H174.253C168.748 400 164.286 394.345 164.286 387.368V312.632Z" fill="#3076FF"/>
<path d="M164.286 12.6316C164.286 5.65536 168.748 6.23968e-06 174.253 6.23968e-06H225.748C231.252 6.23968e-06 235.714 5.65536 235.714 12.6316V87.3684C235.714 94.3447 231.252 100 225.748 100H174.253C168.748 100 164.286 94.3447 164.286 87.3684V12.6316Z" fill="#3076FF"/>
<path fill-rule="evenodd" clip-rule="evenodd" d="M267.586 6.23968e-06L284.483 1.42545e-05C306.574 2.47335e-05 323.658 19.0937 334.805 38.1666C341.54 49.6921 351.233 59.324 362.861 66.0539C381.633 76.9186 400 93.7953 400 115.484L400 283.469C400 305.561 380.971 322.619 361.704 333.427C349.671 340.176 339.647 350.008 332.736 361.833C321.589 380.906 304.505 400 282.414 400H267.586C257.874 400 250 392.233 250 382.653L250 324.638C250 311.349 256.836 299.189 266.859 290.464C294.841 266.11 311.682 234.742 311.682 200.51C311.682 166.279 294.841 134.91 266.859 110.556C256.836 101.831 250 89.6712 250 76.3821V17.3469C250 7.76648 257.874 5.40213e-06 267.586 6.23968e-06Z" fill="#3076FF"/>
<path fill-rule="evenodd" clip-rule="evenodd" d="M132.414 400H115.517C93.4259 400 76.3422 380.906 65.1954 361.833C58.4595 350.308 48.7666 340.676 37.1388 333.946C18.3671 323.081 -4.28911e-06 306.205 0 284.516L3.32196e-05 116.531C3.75882e-05 94.4392 19.0288 77.3806 38.2962 66.5733C50.3291 59.824 60.3531 49.9921 67.2643 38.1668C78.4112 19.0939 95.4949 -1.93129e-06 117.586 0L132.414 1.29627e-06C142.126 2.14537e-06 150 7.76652 150 17.347L150 75.3617C150 88.6508 143.164 100.811 133.141 109.536C105.159 133.89 88.3178 165.258 88.3178 199.49C88.3178 233.721 105.159 265.09 133.141 289.444C143.164 298.169 150 310.329 150 323.618L150 382.653C150 392.234 142.126 400 132.414 400Z" fill="#3076FF"/>
</svg>
